PathFileType	4	(X/Y/Z)	c:/Users/goper/Files/vsCode/490R/osim_files/A01/A01_Slow_04.trc
DataRate	CameraRate	NumFrames	NumMarkers	Units                	OrigDataRate	OrigDataStartFrame	OrigNumFrames
120.00	120.00	6	36	mm	120.0	1454	1661
                Frame#	Time	Mobility_markerset:LPSIS			Mobility_markerset:LASIS			Mobility_markerset:LTH1			Mobility_markerset:LTH2			Mobility_markerset:LTH3			Mobility_markerset:LTH4			Mobility_markerset:LLFE			Mobility_markerset:LMFE			Mobility_markerset:LSH1			Mobility_markerset:LSH2			Mobility_markerset:LSH3			Mobility_markerset:LSH4			Mobility_markerset:LLMAL			Mobility_markerset:LMMAL			Mobility_markerset:LCAL			Mobility_markerset:LMTP5			Mobility_markerset:LTOE			Mobility_markerset:LMTP1			Mobility_markerset:RPSIS			Mobility_markerset:RASIS			Mobility_markerset:RTH1			Mobility_markerset:RTH2			Mobility_markerset:RTH3			Mobility_markerset:RTH4			Mobility_markerset:RLFE			Mobility_markerset:RMFE			Mobility_markerset:RSH1			Mobility_markerset:RSH2			Mobility_markerset:RSH3			Mobility_markerset:RSH4			Mobility_markerset:RLMAL			Mobility_markerset:RMMAL			Mobility_markerset:RCAL			Mobility_markerset:RMTP1			Mobility_markerset:RTOE			Mobility_markerset:RMTP5		
		X1	Y1	Z1	X2	Y2	Z2	X3	Y3	Z3	X4	Y4	Z4	X5	Y5	Z5	X6	Y6	Z6	X7	Y7	Z7	X8	Y8	Z8	X9	Y9	Z9	X10	Y10	Z10	X11	Y11	Z11	X12	Y12	Z12	X13	Y13	Z13	X14	Y14	Z14	X15	Y15	Z15	X16	Y16	Z16	X17	Y17	Z17	X18	Y18	Z18	X19	Y19	Z19	X20	Y20	Z20	X21	Y21	Z21	X22	Y22	Z22	X23	Y23	Z23	X24	Y24	Z24	X25	Y25	Z25	X26	Y26	Z26	X27	Y27	Z27	X28	Y28	Z28	X29	Y29	Z29	X30	Y30	Z30	X31	Y31	Z31	X32	Y32	Z32	X33	Y33	Z33	X34	Y34	Z34	X35	Y35	Z35	X36	Y36	Z36

1454	12.10833	-1528.54419	1304.49597	2865.99927	0.00000	0.00000	0.00000	0.00000	0.00000	0.00000	0.00000	0.00000	0.00000	-3218.96021	1040.87671	1756.83069	0.00000	0.00000	0.00000	-3225.37329	1052.32056	1656.54102	0.00000	0.00000	0.00000	0.00000	0.00000	0.00000	-3167.38647	318.93127	1572.90674	0.00000	0.00000	0.00000	-3214.28735	335.15369	1566.46008	-3272.95337	97.15151	1594.00549	-3294.67236	98.60654	1677.29114	-3360.85034	78.38893	1624.44043	0.00000	0.00000	0.00000	-2993.84155	1014.55237	1551.93774	0.00000	0.00000	0.00000	0.00000	0.00000	0.00000	-2986.09668	991.78564	1810.62561	-3022.77344	668.22986	1900.11279	-3000.62695	630.46997	1897.72681	-2966.12036	694.27966	1897.48633	-2953.33521	651.83386	1897.50195	-2903.77246	519.21149	1864.08582	-2908.49805	521.98358	1733.10681	-2950.54541	310.81360	1879.01904	-2937.19434	267.91968	1881.92419	0.00000	0.00000	0.00000	-2884.93848	279.11163	1888.15796	-2869.87329	95.92500	1863.55664	-2837.78809	122.28879	1782.94629	-2904.37817	55.07862	1807.75696	-2698.86011	96.32087	1801.21301	-2678.72827	119.28159	1852.29468	-2728.13965	70.62825	1905.38000
1455	12.11667	-1529.01831	1304.26904	2865.88501	0.00000	0.00000	0.00000	0.00000	0.00000	0.00000	0.00000	0.00000	0.00000	-3209.52734	1040.01440	1760.02991	0.00000	0.00000	0.00000	-3216.76758	1051.52295	1659.83704	0.00000	0.00000	0.00000	0.00000	0.00000	0.00000	-3165.06689	318.41763	1573.44189	0.00000	0.00000	0.00000	-3211.78784	335.06717	1567.09290	-3272.58105	97.51440	1594.10583	-3294.70728	99.28594	1677.45386	-3360.53882	79.14655	1624.66711	0.00000	0.00000	0.00000	-2986.48633	1013.02472	1552.77441	0.00000	0.00000	0.00000	0.00000	0.00000	0.00000	-2976.35327	989.64874	1811.35620	-3015.36060	666.58728	1903.12524	-2993.28540	628.68323	1900.20068	-2957.85107	691.96759	1899.60339	-2945.72070	649.51831	1899.91223	-2894.39722	518.43640	1865.09497	-2902.26099	521.05615	1734.13965	-2935.14551	308.92105	1882.13855	-2920.30957	266.47745	1884.95203	0.00000	0.00000	0.00000	-2868.26733	279.36456	1890.36426	-2847.26001	96.44363	1866.32166	-2817.68066	123.49414	1785.08557	-2881.86475	54.39191	1811.30981	-2677.57788	102.70202	1801.13623	-2657.44531	126.66521	1851.79980	-2704.16455	76.59134	1905.99377
1456	12.12500	-1529.49780	1304.01831	2865.72852	0.00000	0.00000	0.00000	0.00000	0.00000	0.00000	0.00000	0.00000	0.00000	-3199.84985	1039.09912	1763.23096	0.00000	0.00000	0.00000	-3208.01611	1050.65747	1663.16492	0.00000	0.00000	0.00000	0.00000	0.00000	0.00000	-3162.63525	317.81247	1574.04395	0.00000	0.00000	0.00000	-3209.35791	335.11313	1567.75012	-3272.20679	97.95103	1594.21399	-3294.25708	99.67852	1677.84521	-3360.20264	80.01176	1624.95215	0.00000	0.00000	0.00000	-2978.96118	1011.50006	1553.37488	0.00000	0.00000	0.00000	0.00000	0.00000	0.00000	-2966.58984	987.51227	1812.12744	-3006.67188	665.41974	1905.55371	-2984.98193	627.28619	1902.87183	-2948.99609	690.28705	1901.75403	-2937.36841	647.66608	1902.36511	-2885.50269	517.44623	1865.88147	-2895.39917	520.18689	1735.33557	-2920.70703	307.04672	1885.03613	-2904.16504	264.90292	1887.82324	0.00000	0.00000	0.00000	-2852.60596	279.43619	1892.31250	-2825.77539	97.22801	1869.02209	-2798.58911	124.82324	1787.06689	-2859.22192	53.02362	1815.00891	-2657.53857	109.09605	1800.57385	-2637.45654	134.07103	1850.83618	-2681.05981	82.58284	1906.21167
1457	12.13333	-1529.98889	1303.75647	2865.65332	0.00000	0.00000	0.00000	0.00000	0.00000	0.00000	0.00000	0.00000	0.00000	-3190.03198	1038.06567	1766.44690	0.00000	0.00000	0.00000	-3199.10864	1049.79529	1666.39124	0.00000	0.00000	0.00000	0.00000	0.00000	0.00000	-3160.13623	317.24792	1574.69446	0.00000	0.00000	0.00000	-3206.70435	335.01514	1568.40112	-3271.80908	98.49467	1594.30566	-3293.88159	100.14276	1678.23962	-3359.84302	80.86945	1625.24268	0.00000	0.00000	0.00000	-2970.84204	1009.99817	1554.27258	0.00000	0.00000	0.00000	0.00000	0.00000	0.00000	-2956.75562	985.31091	1812.94153	-2997.31641	664.49066	1907.73059	-2975.72217	626.11127	1905.48743	0.00000	0.00000	0.00000	-2928.26245	646.42383	1904.48865	-2877.28784	516.14844	1866.40308	-2888.43945	518.84924	1736.69446	-2907.20703	305.14334	1887.68652	-2889.19922	263.50632	1890.36145	0.00000	0.00000	0.00000	-2837.84375	279.51401	1893.96021	-2805.44116	98.11628	1871.59570	-2780.71094	126.00401	1789.00940	-2838.40601	51.87574	1817.84631	-2639.01904	115.43256	1799.56384	-2618.92041	141.20215	1849.65247	-2659.45020	88.69187	1905.97363
1458	12.14167	-1530.46301	1303.45728	2865.58984	0.00000	0.00000	0.00000	0.00000	0.00000	0.00000	0.00000	0.00000	0.00000	-3180.23389	1037.21277	1769.53735	0.00000	0.00000	0.00000	-3190.11914	1048.94446	1669.56238	0.00000	0.00000	0.00000	0.00000	0.00000	0.00000	-3157.50903	316.74030	1575.37964	0.00000	0.00000	0.00000	-3204.04712	335.09903	1569.08850	-3271.41553	99.05440	1594.34314	-3293.48999	100.59605	1678.57373	-3359.46851	81.89165	1625.51868	0.00000	0.00000	0.00000	-2963.03784	1008.03992	1554.85852	0.00000	0.00000	0.00000	0.00000	0.00000	0.00000	-2946.63916	983.32404	1813.74854	-2987.40576	663.57092	1910.35168	-2965.72778	625.34717	1907.93323	0.00000	0.00000	0.00000	-2918.68994	645.41119	1906.15161	-2869.81396	514.75269	1867.06848	-2881.60547	517.54437	1736.76526	-2894.62207	303.35968	1890.03491	-2875.32178	262.13507	1892.57104	0.00000	0.00000	0.00000	-2824.05908	279.59729	1895.41748	-2786.21216	99.03992	1874.03979	-2764.18213	126.97140	1790.75671	-2823.76318	55.92664	1818.66199	-2622.39893	120.96019	1798.73816	-2601.85010	147.93501	1847.70630	-2639.18750	94.45845	1905.41492
1459	12.15000	-1530.83545	1303.13196	2865.55859	0.00000	0.00000	0.00000	0.00000	0.00000	0.00000	0.00000	0.00000	0.00000	-3170.30933	1036.31824	1772.66687	0.00000	0.00000	0.00000	-3180.79688	1047.91016	1672.68176	0.00000	0.00000	0.00000	0.00000	0.00000	0.00000	0.00000	0.00000	0.00000	0.00000	0.00000	0.00000	-3200.27026	336.13666	1568.44531	-3270.96265	99.52863	1594.39771	-3292.51929	100.73791	1679.07361	-3359.01538	82.91974	1625.75903	0.00000	0.00000	0.00000	-2954.95825	1006.38568	1555.60657	0.00000	0.00000	0.00000	0.00000	0.00000	0.00000	-2936.72607	981.48218	1814.59961	-2976.99487	662.77545	1912.76074	-2955.32300	624.56433	1910.10327	-2919.55322	687.74701	1906.16748	-2908.86865	644.53485	1907.45630	-2862.33643	513.19489	1868.16357	-2875.42822	515.15674	1737.93152	-2882.97827	301.76840	1892.00415	-2862.34326	260.90894	1894.46350	0.00000	0.00000	0.00000	-2811.63623	279.49182	1896.85449	-2769.00000	99.83910	1875.68713	-2749.14355	127.75266	1791.99866	-2802.14111	51.73264	1825.39099	-2607.50244	125.90668	1797.22827	-2586.64600	153.79689	1845.41541	0.00000	0.00000	0.00000
